<?xml version="1.0" ?><svg height="32" id="svg5" version="1.1" viewBox="0 0 32 32" width="32" xmlns="http://www.w3.org/2000/svg" xmlns:svg="http://www.w3.org/2000/svg"><defs id="defs2"/><g id="layer1" transform="translate(-156,-148)"><path d="m 163.75,154 c -2.2616,0 -4.17798,1.71513 -4.42773,3.96289 l -1.31641,11.85352 C 157.7597,172.03174 159.52103,174 161.75,174 h 3.85352 c 1.04324,0 1.98754,-0.64075 2.375,-1.60938 l 1.1582,-2.89257 C 169.25824,169.19423 169.54583,169 169.87305,169 h 4.14453 c 0.32722,0 0.6148,0.19423 0.73633,0.49805 l 1.17187,2.93164 c 0.37831,0.94577 1.30169,1.57031 2.32031,1.57031 h 4.88672 c 1.69878,0 3.04892,-1.50693 2.86133,-3.19531 l -1.42773,-12.8418 C 184.31665,155.71513 182.40027,154 180.13867,154 Z m 0,2 h 16.38867 c 1.25906,0 2.30237,0.93224 2.44141,2.18359 l 1.42578,12.8418 C 184.06547,171.56191 183.67262,172 183.13281,172 h -4.88672 c -0.20686,0 -0.38606,-0.12044 -0.46289,-0.3125 l -1.17187,-2.93164 C 176.18832,167.69834 175.15656,167 174.01758,167 h -4.14453 c -1.13899,0 -2.17075,0.69834 -2.59375,1.75586 l -1.15821,2.89258 C 166.03512,171.86336 165.83499,172 165.60352,172 H 161.75 c -1.07001,0 -1.87402,-0.89943 -1.75586,-1.96289 l 1.31641,-11.85352 C 161.44959,156.93224 162.49094,156 163.75,156 Z" id="rect28740" style="color:#000000;fill:#002cba;fill-opacity:1;fill-rule:evenodd;stroke-linecap:round;stroke-linejoin:round;stroke-miterlimit:4.1;-inkscape-stroke:none"/><path d="m 166,159 a 1,1 0 0 0 -1,1 v 1 h -1 a 1,1 0 0 0 -1,1 1,1 0 0 0 1,1 h 1 v 1 a 1,1 0 0 0 1,1 1,1 0 0 0 1,-1 v -1 h 1 a 1,1 0 0 0 1,-1 1,1 0 0 0 -1,-1 h -1 v -1 a 1,1 0 0 0 -1,-1 z" id="path27974" style="color:#000000;fill:#00c89f;fill-opacity:1;fill-rule:evenodd;stroke-linecap:round;stroke-linejoin:round;stroke-miterlimit:4.1;-inkscape-stroke:none"/><g id="path28704" style="fill:#00c89f;fill-opacity:1" transform="translate(-1.0000013,-0.9999999)"><path d="m 179,161 v 0" id="path28710" style="color:#000000;fill:#00c89f;fill-opacity:1;fill-rule:evenodd;stroke-width:2;stroke-linecap:round;stroke-linejoin:round;stroke-miterlimit:4.1;-inkscape-stroke:none"/><path d="m 179,160 a 1,1 0 0 0 -1,1 1,1 0 0 0 1,1 1,1 0 0 0 1,-1 1,1 0 0 0 -1,-1 z" id="path28712" style="color:#000000;fill:#00c89f;fill-opacity:1;fill-rule:evenodd;stroke-linecap:round;stroke-linejoin:round;stroke-miterlimit:4.1;-inkscape-stroke:none"/></g><g id="path28706" style="fill:#00c89f;fill-opacity:1" transform="translate(0,-1.9999999)"><path d="m 176,164 v 0" id="path28716" style="color:#000000;fill:#00c89f;fill-opacity:1;fill-rule:evenodd;stroke-width:2;stroke-linecap:round;stroke-linejoin:round;stroke-miterlimit:4.1;-inkscape-stroke:none"/><path d="m 176,163 a 1,1 0 0 0 -1,1 1,1 0 0 0 1,1 1,1 0 0 0 1,-1 1,1 0 0 0 -1,-1 z" id="path28718" style="color:#000000;fill:#00c89f;fill-opacity:1;fill-rule:evenodd;stroke-linecap:round;stroke-linejoin:round;stroke-miterlimit:4.1;-inkscape-stroke:none"/><path d="m 176,163 a 1,1 0 0 0 -1,1 1,1 0 0 0 1,1 1,1 0 0 0 1,-1 1,1 0 0 0 -1,-1 z" id="path28720" style="color:#000000;fill:#00c89f;fill-opacity:1;fill-rule:evenodd;stroke-linecap:round;stroke-linejoin:round;stroke-miterlimit:4.1;-inkscape-stroke:none"/></g><g id="g28728" style="fill:#00c89f;fill-opacity:1" transform="translate(1.9999977,1)"><path d="m 176,164 v 0" id="path28722" style="color:#000000;fill:#00c89f;fill-opacity:1;fill-rule:evenodd;stroke-width:2;stroke-linecap:round;stroke-linejoin:round;stroke-miterlimit:4.1;-inkscape-stroke:none"/><path d="m 176,162 a 1,1 0 0 0 -1,1 1,1 0 0 0 1,1 1,1 0 0 0 1,-1 1,1 0 0 0 -1,-1 z" id="path28724" style="color:#000000;fill:#00c89f;fill-opacity:1;fill-rule:evenodd;stroke-linecap:round;stroke-linejoin:round;stroke-miterlimit:4.1;-inkscape-stroke:none"/></g><g id="g28736" style="fill:#00c89f;fill-opacity:1" transform="translate(3.999999,-1.9999999)"><path d="m 176,164 v 0" id="path28730" style="color:#000000;fill:#00c89f;fill-opacity:1;fill-rule:evenodd;stroke-width:2;stroke-linecap:round;stroke-linejoin:round;stroke-miterlimit:4.1;-inkscape-stroke:none"/><path d="m 176,163 a 1,1 0 0 0 -1,1 1,1 0 0 0 1,1 1,1 0 0 0 1,-1 1,1 0 0 0 -1,-1 z" id="path28732" style="color:#000000;fill:#00c89f;fill-opacity:1;fill-rule:evenodd;stroke-linecap:round;stroke-linejoin:round;stroke-miterlimit:4.1;-inkscape-stroke:none"/><path d="m 176,163 a 1,1 0 0 0 -1,1 1,1 0 0 0 1,1 1,1 0 0 0 1,-1 1,1 0 0 0 -1,-1 z" id="path28734" style="color:#000000;fill:#00c89f;fill-opacity:1;fill-rule:evenodd;stroke-linecap:round;stroke-linejoin:round;stroke-miterlimit:4.1;-inkscape-stroke:none"/></g></g></svg>